<mxfile host="app.diagrams.net" modified="2021-09-15T10:14:02.769Z" agent="5.0 (Macintosh; Intel Mac OS X 10_15_7) AppleWebKit/605.1.15 (KHTML, like Gecko) Version/14.1 Safari/605.1.15" etag="Sk5LCwDGmHrtHKSgLkBp" version="15.2.7" type="github">
  <diagram id="vrhyL2FbUkbPOUI0XQRK" name="Page-1">
    <mxGraphModel dx="894" dy="552" grid="1" gridSize="10" guides="1" tooltips="1" connect="1" arrows="1" fold="1" page="1" pageScale="1" pageWidth="827" pageHeight="1169" math="0" shadow="0">
      <root>
        <mxCell id="0" />
        <mxCell id="1" parent="0" />
        <mxCell id="QEU0LDW4OB89s9a05lQF-1" value="" style="points=[[0,0],[0.25,0],[0.5,0],[0.75,0],[1,0],[1,0.25],[1,0.5],[1,0.75],[1,1],[0.75,1],[0.5,1],[0.25,1],[0,1],[0,0.75],[0,0.5],[0,0.25]];outlineConnect=0;gradientColor=none;html=1;whiteSpace=wrap;fontSize=12;fontStyle=0;shape=mxgraph.aws4.group;grIcon=mxgraph.aws4.group_on_premise;strokeColor=#5A6C86;fillColor=none;verticalAlign=top;align=left;spacingLeft=30;fontColor=#5A6C86;dashed=0;" vertex="1" parent="1">
          <mxGeometry x="200" y="50" width="320" height="280" as="geometry" />
        </mxCell>
        <mxCell id="QEU0LDW4OB89s9a05lQF-2" value="" style="sketch=0;aspect=fixed;pointerEvents=1;shadow=0;dashed=0;html=1;strokeColor=none;labelPosition=center;verticalLabelPosition=bottom;verticalAlign=top;align=center;fillColor=#00188D;shape=mxgraph.mscae.enterprise.router" vertex="1" parent="1">
          <mxGeometry x="80" y="340" width="50" height="39" as="geometry" />
        </mxCell>
        <mxCell id="QEU0LDW4OB89s9a05lQF-3" value="&lt;font style=&quot;font-size: 8px&quot;&gt;Nginx - Master&lt;/font&gt;" style="shape=image;html=1;verticalAlign=top;verticalLabelPosition=bottom;labelBackgroundColor=#ffffff;imageAspect=0;aspect=fixed;image=https://cdn4.iconfinder.com/data/icons/logos-brands-5/24/nginx-128.png" vertex="1" parent="1">
          <mxGeometry x="310" y="120" width="25" height="25" as="geometry" />
        </mxCell>
        <mxCell id="QEU0LDW4OB89s9a05lQF-4" value="&lt;font style=&quot;font-size: 8px&quot;&gt;wlan0&lt;/font&gt;" style="shape=image;html=1;verticalAlign=top;verticalLabelPosition=bottom;labelBackgroundColor=#ffffff;imageAspect=0;aspect=fixed;image=https://cdn4.iconfinder.com/data/icons/basic-user-interface-elements/700/wlan-connect-wifi-signal-wireless-internet-128.png" vertex="1" parent="1">
          <mxGeometry x="190" y="132.5" width="17.5" height="17.5" as="geometry" />
        </mxCell>
        <mxCell id="QEU0LDW4OB89s9a05lQF-7" value="jgte" style="shape=image;verticalLabelPosition=bottom;labelBackgroundColor=#ffffff;verticalAlign=top;aspect=fixed;imageAspect=0;image=data:image/png,iVBORw0KGgoAAAANSUhEUgAAAOEAAADhCAMAAAAJbSJIAAAA8FBMVEX///+NbJ/teJnyg6Vyyq/gZ49dvJ3yeZmGa5+KbJ+Na5/kZ46Fa5/3hKXzeZlxzbCEX5iIZZuOZ55bv52DXpfod5mQZp+SbZ/Hc5vjd5rCcpygbp6ycJ3edpqkb56QbJ7VdZu6cZzZZ5B0xK7WfKP59/qabZ7NaJO6qMSYe6i1cZ2Bmaby7/TSdJvRe6Phf6Sqk7fUydrDaZXDtMyKcp+Dk6XZz97n4etmr53BscqAn6eGiKN7rqq4aZemjrR1mJ6JfKFxnp54tqtorJ12vq2ynr7q5e2IdZ+EjqSGiaR9qalhtp3Lv9Nuo56Efp96squQAKaJAAAemUlEQVR4nO1dCVfbuhKuQ1NbjrM2CyQhW4khgbAvLRS6Ad249P//m2dbM9os2c5G7zvnzj3nngKxo08zml3Sq1fL0/jx8uRs7+FucjeZ3N0dP+w9XT6OF3jNQfSa44ge9s6eLq8OVjC6JenqaW9iVSrVkFzXtazgf+G/K9XJ8clj9veMT/YmLnsNvKRaqbiT47PLv4Xz4HJvUg8GFcDSUTDGurV3leVNj2eTeohM9xY3xFm9O7taQCiWoXGArmoEJ6CsTJ7ShnYyqaS9KMAZoXwRbAEdPN2ZWadh5V4Sxicr45tClO7D5fpZeXCWPuUqxsqe6W0nVnWeV1khK0/WCXL8pIXnurWAmoyCH6RF5VbdS93rHicV+T3Sa2rqa9iEHWvftgK6Oo7DCwbVdM+fLz798+39799vA3rz+/0/Xy6eSbMmfrZyHH/fh7orvqjpfg5f8/sNvOXbP5/2b75bAVL1SwMN8DCHns5I4zOrokhUiO7zxZf30ZDevuEU/fj+y7MIsmopYxoLDAzgff5E36O8JnjPP/vPtabCzVCFnawW30NdZl845c+fviljeiOP782Xz80ae6IuydZVlc2X2/z+6bfxPRHQ959uFKEIQX5YHcADt6rAO7/49sY8qIhev35dfvv1ponjcivCrF+xCXObz99S3hTBfPPt03cFZHWyMoSuvGACiTLz7rVE5fI9x8i5eFlh+D5/LZfFJ5JQ/v7yLK3K6t2KAD5xgarVzBL1Wk/ljwRFtQI2+6qO73N/yfhScEaSL4CsrEirTlzER/bf6+EZ0FGIr2+aOOmRi3mAI6x9fqfFl4Qy4OSncxSL6sNqEOKEP/8zPzyK8RoguhNxxpoXCfgSUL59++3GFd63KoS1Cy2+VHgRxF9NPul7IPTN/VSAZpBfIsl3V7QQ76IhuSQOMBM8CWLlChdhRoB6kG+fIyZWV2QwTuik1/55uxi8COJFDeQKZLR2kxmgBuTvmqS6lqYKrMO3i+ILIT4DRFiR3+cCqGB8S+drVcvw1asHYOLvhfEF9I65N5GM3s+LUMJI56n6tCqEVxXUNYsDDJaiALGWfRFqMIKeseqrC6Rw7SzBwgDid2apXXehNzCE9E2rsoYhnQATP701INR7JspnPjYZC6/TP18ux18KAL81V6tnQgIDS/Q8LN9fX9+noywTNzMLy+U/Fxdf1TdKpmJ1eiakM9A1X95qEJb3gzC1SW5+3SeDLO/DSqz9SJ6Mcvnd9Xn4TpXVFOF7YOFKQ/0xjXbcc42Ylv9E3xgGxN/3E0HeA8JmjDkyvj83ECc17zUAkYXWKgEyVwutvjSiCx7mBpFjAsjyORXTphlgwL595lir61Vi4epMBaUDsPoaJpZ/SGmngJPX7/QgYS7cZ+MUlP9IuQ8ZocRCy10tQG714ytR0JEIsvbzqw4jmESTMSy/vubsi17UfPdiLORMJBom/myq+bCAkb9ex3HcN83LsHz/Q06rBRP15wVZyJn4SbMSP/4katIvCJevYxiDQDHQR9qwMIg+pBcEK/r6XXwVoi1cPQsZE9GxkYdXLn/dVxNFAQ/21Ri+/PXi4o9WRt+JAINHb2JyThGCslqxIqWE6vSHziZGWvDXjavK2b7CR52nEv3+I/daKfu01h490upqs6VAYBOt5nuTbxqM6tdnmZM16zqLR4dGNdLFcfYxhG9Wm71QCXJu7mc9EwHk/f65LHDnerFUH4xcOlfLPgbw7Q+IfNdVuWgBE6nFMI41MmoCxuZzUkoN6T7w05o3f0wcl9TMqvKkMcIUC4TCZn4omr/W3M8gquU/vwyewmtFzVTWV/e+Azl9TmRiNNx3+zUx4v2eIaZPmoUIIHjuVWM9cnliyiZZTul4X1+7HKMbWEGqR8tIqYhVgN9QGa0PYKBswCi6KXIKGC8EPtbOnz+fn1sWId+/P/+4/vX1XXaYVI9CeLk2NUNpIunTtJGV3wleuStQVO09/3n9NVN2gLLwBmR0hbkLHR2AnNb2M0Ash6Unc9E/KiD//PWuLJIR4KeXkNGQUE6bUaSoRVV+R+n+1w/SNAME4a3VPl9cX19Quv54r0/PsEW4ZhkNCfRpYDJiEIOx3V///F7jlKlrIxJaFN4muVBdmpCFv6GGuU49ijSG73LPFWVTLn+80TUWiERCSsEbuqWvlbAJ8odrc9dkusIg47PIxMjIm9ERx3FIy/c7vV7H91vhT2akAS8FjCHAz1ASqL5MjxsuxdoNgxhoFCM6EqDzu5uDrUbOBso1tmftnhXANIGskY9lDhDUqFVf/yKk9IBL8QeFGBi+Zk0/0gBdp72dKwWoFAqAbs26lgkk82YFgKsqpmWgiQgxCM9dEV/IM6R+d7MRByfAzA2mfiSy0cclya3VfpVlgGtzuDWERbIA4ts3P7lJIMRr9aablGaDrSR0CLK0Ndhst6Mnhj2Rp27z5+tgBqEs90JaBgkVarAW35/XOL5Oe8tmFBdLW/6H/Df6zGDY4iBr579/4+tXnQFOI/RtLJ63IGS6VTLxzLa3N6cdvxUYi77vd9uDnIm9tj3rOIyNhNc6XrpV+FHp4iPOMGeEl5t1ibDKSLjsOsEKNXy+NGup+uflAYZdMSJEp7NlHO+WVmMGIHszA8/tXNf76wDD7kJBwWyWTPzb7nkmq0ec1qZhXkozR/hgdfLCbd5AV9gNRlomBtqNntmqR7z3BwY2bvfZg6tqm5mXLnElOl3jAtxMxheS1zU8nGMKp3r2N/Ad3FUQ4NRo9HqiqJFI2RBCFMtOWtsGNnYZxMmL9ekz+sA6hr2hYQnaW1zOIr0yPDzaCOnocNiTXFLHsBpLQ9Q3buWFMV7xHntnaFqC25xTxOntbBSLG0jBP3fEBeq1DVzcZCrVrdy9oDr9UGFa1OualOiWgG96xNExlEdTjtEzcNGecatRrayh3qSnO94TbZr8gJjRdrobcXwRxg220Cxn2yAJM4HVlbsXMRrjCZfQvqTqbZsb8FKPoB7Z0eOLMO6wpdrnb5F8I3u7xdVV1XoBST1gS5AQmYF2u+/5qBYHIF1OzwiPshHVLcH13PX4W+h7N/vcT62ufqOFQmOMm4Kxy35lKXS0CEib3SEgoWYGAkaUVNKIHgwREyJDzG0yPq4fIoooITNZxdjTaBCEWv8tLyPAACLIMzUZ8KAMMZDcNi5Ht7retYhKhvhKYFCiAIM/2JFgUbh+OsCAWhafG+aOKn6gvYWaa4W7LDR0VkEJzckEHMRx2u1oOM5hFoTFNp2OjsDD4MeYq4srdp1pfawfOj3l20tM7dN1uBBCyn1uQFRfjv1pjRk3CJeICpAPywPzAVLayYTQJ8IKtnssTo5BxD+trXQBDYp0sqVvZhycwZ+2QdNkYCKw0ELbg2o4+E0ssKJzsbbU/riCK0T5XhbleAgwZ7fgsxp3TQF4CE877LUMIpswpC347JrK3JAH9pSvbfiaAYEyTedicYgqios+56LqruJr16NsoCdKWYRCiCTNuN3HQZq80gjfkc/4L0iGIPZKaGajnC5vFD9MXEXYoSXKkWTUHrAQyZFXzQAHSchQj7FY3OEpHDkI4xA9JX8Ar10+6r+rumoSHdSMFNAL8Zuq+ew2+5NDumF0WBTBFTeOpkLqV1XPAhc70h9KKMFLArysx6T9EhA2xHFMmX2OG2geoIfuqudP2ztHUYx/dLTT7naIFOR3YklwZoBIS3KfgInL9umDXagIskD9NSIJTYePQtWvOTUNRWsvNE2jFg91qazSkIu5KP+gpZc1GLC/QvAewFQIgaqQ7iN+HF9OCe3MRPRpGmEFOG2ub+zhasQUOtjcCsYqsHO3VeID4PG56qWKw0nLJhI1CuMP86SwI2QcwSZWloyisF3WdUEtU03KwlTRf/TM2cSc3RgmFHqDF3o9QyoxJ+WyiM/WeQnEdNmkDe62xliFuqQopIH8sWE7YkI/qmA3onI2/ia36Rtq9sSxptsl04PR/DBvgjBra0+j31U1pzTMRxgoUQdpDHEhfAnXIUI4btuN2bTTCn5l9X2h9mvbW+0eZIPxoai2Px1ARiasGkYPkuDB9rYIsidIKvwahXdZhOikUYS0/wKtFk/xOSwSthvtjicU0AL70G5w8PbWrN3t+a1QO7X83rQ9aJQQ3qwnVd4cqztjIAWbg5axAUZ/ebeGJixopPIkLkObe6I4r/Z2L77eHKcrKhFe+hWLwGGeSX2QOP02JtyEdCL6PXQhrmDn2jg8RATsBVU0zozOKwobLkG7YaigEcecT4WZ8fUGxbHQhNhbOKEQtoFjvpJm9rM7PCXlmCKERBqErKjf7E2zTXDUhI4McGpWtA5Tn6i3YZGgqlltQYqqUg9ctkHAMcKrYr0ku04sQ4EwpE7ik0xLg2bzqAhBimTFERT9Tg8ndeD3fcgm8iQYHZVD+n0irUk1oGTUEJ4MfTmrZcn+HLO0gaR6DvuJKtPlzYVEEBtyj4YpAqnCRHpt6lwfTgX9EQvVgQSbSrq08na0M+wIS5o7rPZgxmw+db4XKAxfJhz9Bkm2WJ0pAMjwef4OD5HC4I97Pbqyi6CRW4figxvDluAQaiZnmyKcN2965VaqFePBYxShmoIKBI2zwT8qyoGuUHaxGrFhcrfPGaoPbrR5XK1xCRdEGPWOVCsf9BhNPOR8aGsqhLzsEmMFKwwSS1db3OBBfjzwWAwh80P1SriurENKpS5JGGY4UkyFxwMklO2WIcXBwkMnFnpShFZrToSsKFh1Y147ds4oZUzOB8MwhcpSXx4ki/KI/rngSQwP4+lZcEznVKZjXri26kr8fMAqakReT30G0EiQ0LYU56aBvDWXT3kiVfGLtnmHxlyu6ZNwPlxdUqr8XK5gPYmREgqSc2RGuHEEH2pJGSxgIZkmZFN5KlVmIVv78UPgkulqwthYFUsfl3hsVUiS3iepfBDGCT6twv2EB3llkUiZRrEdzJ3T/b5EjHXhuauK2KAnZKJsrDekVUGR/XZslDoFLBFyS2RhV/Jk501mXEZFerEGiY35FryXawwsTVjJgwz0KazE+CiTWciXoqSJiTSe+fM1T26lLvR0sF5gB2vRTExhwQf2OmWcR54qpjbJxv2NIpSHO3z5Q77UvwVhXaB1+FFUM1jVdm4LvjydNrImZZC8PshXE1b5d1IfhZXgMB0OgQW5LSDE5TxwyAxb3mmhcCuP08bqe2qFsEgVJ+F5bUhEpk/OxoYqpiDgzm6+cAoGc5lWqQOsat8W8vldWtZFhYFCmsoHZjB4T9AUIGdu1OBqCgJ8b5TPMy5WFs/YgIySbgAwP4IFgHG9k0nPCIxg7gJUqxONISIEXcOsaYnaGRIMKF8AheUuLKfgqxI/BJjP09f1S6K0kF6GSj3oC+Zggs12NrNU+SlCjy1EOopWNKQCqPOFd+xhY8IoApiHhSdV21MtWoQQlNRAtjOZOjVwdvBZCNdg0kfAxAVbbMAUklv6NlCm4EJBjTfLMtwowmwwc9Ga49kekVTNFjR5wJhAoS+YWbxzBYHgCKm82KDwk1xSNkqQysEiCIeyCpcR5vN0ohdrdYfijHOqRZijCL0Mg4xLqT+HlEI70VBS4aSHg7oFJi7SnAGnYPRxtmSEDUCYqXENJHpbQZhpDVNlyorrCsJ8nuqahSpRVM/gKlwKocFaZGhcZAhNUgoWI1nXHOwd752dXD4eSIYThNQb5bUIQUqzuCUbO3qLb2XpXFSldEvl4a6TKqaPFbhLolp1hWPAwRj6BRUhjJJk1jRLeW3wsEGXcptYTTCJfPeS5bp1lof6UJWFlNlDRVtkGCQ8GPe8s3S99WQ9LNtDLqYJnQtjeZddHX9PbUXg4TKCT5SktZQaO/HoiRmLXIm+KYtDVKRaindMiT5NhPA0dSHK2whZQAmKZsQRSh4iZFoydAGDnOki4Axiimke9ihEvnxY4C8ndGTuSVcwMB7CbwvKm9hqmmVeS+Ara7IY6b43Kpqe4nk7HCH4y0kBxkOd3mAThMsuu2zjQFU0GD1hoqaBWcKUQRZRrUiZKJjP1PlBd4jHh7D+uWwVFOHT0cHl09ne8WRSrVtM0TxC4T6GEE0vNpi10tiA0iECZImaNJMIQsrz3rD+Bf2AynRe1zSO8JQixPQsBogpCrGIWOQNYNiwnmJtMAD2S8rciAj9xRBeqQjBA+TChmWnhIR3WH/CrLGcLWct24lPMxbyXBtquNMYwnljRLoDVkQIk7etzGZKsg1zf+oePkzNJ1oMLAmIEk6VlGCnEeG8nmkcIZ11HmyzQSblvFmZN6cQem6WY9anWLmSpgdc724M4bytGVcxp40uaKGGxLLPrrFdHQHqSvnYJm2EiKlEeXoaJrdtXoSPMWsBa14YKi8AayEWjzAxTXRboXF3m2l7GwOo1B5hZjhC+vPcuRrsW1d8eGmsvAFTp1B5jTNWAaRPMxaRfnyGjPVjSBBxZwtyNXPrUuy+wBeB+ydvOWTbKAM+yIMsCl34RFPFp1IudOVtKI8fmnoA0FwwZTpKD5/0NJE9b1SlA3mUQndk9wi61cP/H/q8e9HSdEjTwfJuDXh8Ax5vC90YSh8HboubonSdAsJ5AUJswbQyrGdHGaTQ9EMcqzc83DkK96ILbepmgBIXo8fDXvedw6lP+K+dWEcVqPCOnKlZIKEITcGolUdUL7TM3RiWZWlOCnJ8vYhSEvv5aV+U/DiJA8zlwAtA4epEP7rZesDGlydMmi+lRBQuw7hSFPkQp4TzFujTA4uYn9aet4G5aFyI0LaQweDTaw1ZkI/N+bswU+DjawZp7kx0WnEWqI0VpsbNgDxthzz6bSBdmKdJK5Re7VlwMR7bgCDl2kAlx3tbokF2tT2UjiUpXnqG2WxzNttuiAcM2QNf/7hmeiLC/UbiMkzriQ47vliXAgo05EujfEHhVCo8xTDGz6AR23wjeINhx2JHgFn+cCC0CQ96ngIy4eQaTGRQ6UKfLXmDiZSqYQgPBDEFIY35zwIfhz6cXBJ1qbe6A5FN212inGcS/Nzl+xDsxmZ0Ph0+b3UHxhOnWIoo8plRSJPt/Yl4Mx7fJgP2InTcRrFkUvx77a3ZsNvx/V53uCmdYmZv6U/hIY6w1yJ4YHszfL7Tm25uG0+cij7a5toUpj7NVnCEblXoh4JfO6cFLEVayYoxpzvGLDzyyaRKiBdrddcdg6YS5NtDFbFL/5mmSWkxO7x5d3ImqqQKKz7BgFJUvxZ0ojlI7pE2EUugFMAPcavJAF+9OquHtzAfnyiuHe5s7p6qnSbZB9P2ZESx0z29tun4FyOxBMouyFaG8xSv9vZ0wQcOC/KBsU2C6WMR3YFAAfX9Xq/ny2demk+ZMhM8Ci7jEgdJXEqpVDkfOCfAwHpMo42kIW3sSG3guk7n5PcOJTlYZpOXcNYOnnmQrgh0AJ3OjtTqXCzudITYKTtE+smG6CkudWLkgdC25w3s0tasPRy2Z+bjEaXBsDWoPYWnuMNPITLaWel9pdz2bDPSTKzxM6T6UtuDnpicBj70sOXRba6eJRl0A22zNEW3qM1yFIXDJlLh2YOp70X+UOg52jxqqyy5d+YYj2vpbRJJa7TaiWZZ6F30jDnj4iFOQj/lXbk22/hNVwuerrD8sa3g0ZHeUA2SHGI+7DInpGGSko08YZwop/amJXx7VJYu7GKubulNerRSavkau+30Tft9QsIPJWb9WTM3SQiUlRBUdrkX3cH2yPbPPMr3n8vkmXYpc+cxpfaCa9Hs1AsLGiZDTLHVFzsDZHxX5w5qSwYl+yTEMrARV2FyXSIk+KB5JfK0Y/T1Hm3wOV1mryw9sKwOdvRBtIlOEDr0WqIr7eknf4DNmak1UFiK5riFpWWDiCv4+lFByP1lTM8odFmRrhcUHBvSGRVCGp0KOz+1u/HR68jQUAIdUwlufSHKnTrW7W745ZCAoopmoWX4xHYf0J/HHCFrrikUdjlG3YkK2GCZoe0Js/eG/EGuEaw53/P6p3leYcjURmOiBwTEgn3WjiLWS/OFU35oRCuuCLN3zLAioV6b0i8bjQoivmytUHpinqjLDA27Wl1sPQm+JM9S1nGIuPkq00lYkGzWxmZ5PaGQzu/PsFMfhT1FB2zLhfo1p0YuQh0zSwdxrIUUBT308Q0AM+cQY8S0SkXUUdBoKpbaAOKoz1wpeXRQXMjQT8S7wpRzJjd7vU31C5cXUtx9UJe4DwkbaRkisb3yUpCHJ9Jl6a+MNefRN3S9wPR1DRBRSOcPDOm5NK5S9R/D/krt9+GpRpJnuTRCsPLeruYb8yz3t8idzuE6jB+DCnlFHQ8xnydHQEtLKWgqsXFQJOrQLBT6jh90bgIIb2wdUojMKY9rmiw9sthyI2kacOV4HVT+SprKX+GFHphQ1YtMHs/XE7wS6JjIdLpnrNFdCOH1X4gdl6u75hEqbY5pVaCcChYNpCwDQOy50fWx7OqFFCKnFd7LjW0LeplhdRsh3YgNdlk2HOyoXhs2TOlVW0igSld4Gi1snpmalDdkZrmywSJflh5Z7GtnCDEe1K97JjQrvZUFaokd01di2p8zEaOn9D5wdEtnKgtNiwJV6UqP/sAzE40+Bsip0PWGfbOp8SF2rHAWOikyiopmlUe0p6ga3sjPzyLBLdxpp3seqlkM7HgTG7CVL6PKe8EEhp4SvRqRicLWeXTnkuX0CD/G98FaKd8FHs2KL0dC59v0pfkCUVcTMDHpwIUN1tsnuGzQA+6ZWXibtv9gEXrCaqnxa6eqRrT5mRLGjPBGC6Nrbu1h66ZRkaKQLnusoEIYI5q/d6Rs/eHNh4QY0lHFHaLxaUFFnRq/aQmnNIlATBN0TSxS576XM9WwsbgxZX8fqv5ekp4Bh2bVN3PjnmBtfBF9cdx/LvGDZK1DBWNx45DdeCCeJ4KpQ7Ow7KbuIFmQcKwpZlhuQGWHOltOf3hUZL2LxaMhv9GBiOfo4jI0a+0F27rTCfNRLRNC2FMjJwWFA9mI0496F3cOhz3xIEH5oGA87c6k0mAT/jqumcO2IuPsFgCM1HhgS7eL6W45VArApWRRKWAKatWrMCQsljqGuBvEx8tJlHKnVfyEXdibalA0I/rYmq5CxMywo1fk2L6oNPeF95IZAcbvo4PKJzEICjgIyxW2jYR3PxggwoaMeGLXHvjariji+PHCFQa/eoRrvjmAHUurh2hEGCyuQex00/ACxIGmVwiT5bovGAEH13hLCRb1LU+zFmPbhmRZ3cSDdunFa522vrZqRljYxf6xdd40w5L+jj+KJcDNPIwwRgftDrvdbtiuYuzKMUppAT2geU+/WhQiIbdyNQjz0No2YgFmSssR9B06ii4t7LL2knXfeswv7CJyRQ8jRC9p/OlkawL8QmGXeQ7uWiyhRHe8YOpYt6N8xMlCAbs/9DuA5kCISZrTAr45rDgzNfUS91bvCYfzEc/q3Z7unt720M1MOxo5FSG73KQ1Pd3dDV4tmprq/LubFqETaQe/cielsS9GXICJi7HP36x6eJWXunD1YGLssdH1NoVX6m3P2tOe78Mexpbf67Zn2vvIxSsRFKrWX/A60qeqct8xTnvsJM6wQb0bttxJzcHUKHr9XnsQu5i8pN+E87J3WL4K/RsNRtJvyPCiTQYJF0CEmxI68kH6Oe3p2dWXvoc0oPHTRAFJvJ50RUtj01c3iuhReq3hlujAqeeYu9XK3cvfJRvS40NV3KkxFG+qsLe6JAM8ROn05IeHff7Hauvpb1xZTWkstEmTzrZw3Ld5k4UBo9fjgZTd4Ed4VufeaL9iOuN90vw+lfgmC2pTrH4/0KP9vkWdcJWPePFaTri75YUuV00i4Wrg8PKqEKOi8MOu6U73dHcUOkAR5Uej0EtoKcs0atq3pWtHX9JAmOmhIqLpbpUEgAHr/O7piHfcid5mIb9764ur1emWcm2hHbja+jsKJkaXrtSg2RUWV+d0FMcmwRydCjv7gmc5Pre+uk6EpWlPPGyY7THo3ybDQ5T5W7Z1m/PTrUz+ngbV0ONdRXUAiNwumYiRd8gxAX25K6qz0uVEwRhLAiRiHCn4jHcY/E06sSRZNRePdAhFJrqVh3+VgAr01BJ3Ec0BEVPZVuSiHa/9ZuolSJRVU3I8kYPV6t6/lX9IV1znOJ1suqbAihvV6tm/cf2p9MRCDpJlMQpptH+Bi5aNDnhCzumlqNRCvsvTaP86A2GmY55z9LoJGANjz5zseFvrv5qEhFzgxu3qXZvC6JY7MXNex/H36VKI/4nTira7iOCCn06Fgwjcymrvp3oJChajaP+dfi+Mn3aj/0a7t72+GFRU15/JXgc9VcQcB5a4Y6fshEHE8f+ZhCKNj2WMenL/QhptdfR4V9cnVgX5nPzlPMyyFObjjBjdavX4/5h/SOOTiZaRbrVuffi/MoEJND55aNEztRlV3Lu/mAVdC40vn/YYfVCPUfmP/qP/6D/6j/6jv0r/A3QleKXil8m/AAAAAElFTkSuQmCC;" vertex="1" parent="1">
          <mxGeometry x="200" y="50" width="30" height="30" as="geometry" />
        </mxCell>
      </root>
    </mxGraphModel>
  </diagram>
</mxfile>
